<?xml version="1.0" encoding="utf-8"?>
<!-- Generator: Adobe Illustrator 26.0.2, SVG Export Plug-In . SVG Version: 6.00 Build 0)  -->
<svg version="1.1" id="Layer_1" xmlns="http://www.w3.org/2000/svg" xmlns:xlink="http://www.w3.org/1999/xlink" x="0px" y="0px"
	 viewBox="0 0 80 80" style="enable-background:new 0 0 80 80;" xml:space="preserve">
<style type="text/css">
	.st0{fill:#7A94CC;}
	.st1{font-family:'CenturyGothic-Bold';}
	.st2{font-size:11.4365px;}
	.st3{display:none;fill:#7A94CC;}
</style>
<text transform="matrix(1 0 0 1 19.1948 76.9434)" class="st0 st1 st2">Ahimsa</text>
<g>
	<path class="st0" d="M38.1,15.7c0,3.2-3.2,5.7-3.2,5.7s-3.2-2.6-3.2-5.7s3.2-5.7,3.2-5.7S38.1,12.5,38.1,15.7z"/>
</g>
<g>
	<path class="st0" d="M48.4,15.7c0,3.2-3.2,5.7-3.2,5.7S42,18.8,42,15.7s3.2-5.7,3.2-5.7S48.4,12.5,48.4,15.7z"/>
</g>
<g>
	<path class="st0" d="M43.4,6.2c0,3.2-3.2,5.7-3.2,5.7S37,9.4,37,6.2s3.2-5.7,3.2-5.7S43.4,3,43.4,6.2z"/>
</g>
<g>
	<path class="st0" d="M59.2,14.2c-1.9,2.6-6,2.8-6,2.8s-1.1-4,0.8-6.5s6-2.8,6-2.8S61.1,11.7,59.2,14.2z"/>
</g>
<g>
	<path class="st0" d="M25.5,10.1c2.1,2.4,1.4,6.4,1.4,6.4s-4.1,0.2-6.2-2.1S19.3,8,19.3,8S23.4,7.8,25.5,10.1z"/>
</g>
<g>
	<path class="st0" d="M59.5,29.4c-1.9,2.6-6,2.8-6,2.8s-1.1-4,0.8-6.5s6-2.8,6-2.8S61.3,26.9,59.5,29.4z"/>
</g>
<g>
	<path class="st0" d="M51.3,30.5c-1.7,2.7-5.8,3.1-5.8,3.1s-1.3-3.9,0.4-6.6s5.8-3.1,5.8-3.1S53,27.9,51.3,30.5z"/>
</g>
<g>
	<path class="st0" d="M55.2,41.4c-2.5-1.9-2.7-6-2.7-6s4-1,6.5,0.9c2.5,1.9,2.7,6,2.7,6S57.7,43.3,55.2,41.4z"/>
</g>
<g>
	<path class="st0" d="M47,44.4c-1.7-2.7-0.4-6.6-0.4-6.6s4.1,0.4,5.8,3.1s0.4,6.6,0.4,6.6S48.7,47.1,47,44.4z"/>
</g>
<g>
	<path class="st0" d="M64.7,36.2c-2.9-0.2-5-3.2-5-3.2s2.5-2.8,5.3-2.6c2.9,0.2,5,3.2,5,3.2S67.5,36.4,64.7,36.2z"/>
</g>
<g>
	<path class="st0" d="M14.8,30.5c2.9-0.1,5.3,2.8,5.3,2.8s-2.3,2.9-5.1,3c-2.9,0.1-5.3-2.8-5.3-2.8S11.9,30.6,14.8,30.5z"/>
</g>
<g>
	<path class="st0" d="M34.7,27.6c1,3-1.2,6.5-1.2,6.5s-3.8-1.4-4.8-4.4s1.2-6.5,1.2-6.5S33.7,24.6,34.7,27.6z"/>
</g>
<g>
	<path class="st0" d="M25.9,25.8c1.7,2.6,0.5,6.6,0.5,6.6s-4.1-0.4-5.8-3s-0.5-6.6-0.5-6.6S24.2,23.1,25.9,25.8z"/>
</g>
<g>
	<path class="st0" d="M20,35.7c2.5-2,6.5-1,6.5-1s0,4.1-2.5,6.1c-2.5,2-6.5,1-6.5,1S17.5,37.6,20,35.7z"/>
</g>
<g>
	<path class="st0" d="M26.5,39.7c2-2.5,6.1-2.4,6.1-2.4s0.9,4-1.1,6.5c-2,2.5-6.1,2.4-6.1,2.4S24.6,42.2,26.5,39.7z"/>
</g>
<path class="st0" d="M22.3,19.3c0,0,6.8-0.1,8.4,1.1l1.6,2.4C32.3,22.8,28.8,19.4,22.3,19.3z"/>
<path class="st0" d="M29.8,13.4c0,0,1.8,8.5,3.8,9.4L31,21.1C31,21.1,29.7,16.6,29.8,13.4z"/>
<path class="st0" d="M27,17c0,0,12.1,12.4,13.7,18.1v-3.8C40.8,31.3,34.5,22.5,27,17z"/>
<path class="st0" d="M57.7,19.8c0,0-6.7-0.1-8.3,1.1l-1.5,2.4C47.9,23.2,51.3,19.9,57.7,19.8z"/>
<path class="st0" d="M50.4,13.8c0,0-1.8,8.5-3.8,9.4l2.5-1.7C49.1,21.5,50.4,17,50.4,13.8z"/>
<path class="st0" d="M53.1,17.4c0,0-11.9,12.4-13.5,18.1v-3.8C39.5,31.7,45.7,22.9,53.1,17.4z"/>
<path class="st3" d="M40.1,13.4c0,0-2.6,50.6-2.6,50.2s5,0,5,0L40.1,13.4z"/>
<path id="down-right" class="st0" d="M58.6,32.9c0,0-10.5-1.6-17.8,7.3v1.7C40.8,41.9,45.8,33.3,58.6,32.9z"/>
<path id="down-left" class="st0" d="M21.6,33.2c0,0,10.5-1.6,17.8,7.3v1.7C39.4,42.2,34.4,33.6,21.6,33.2z"/>
<path class="st0" d="M37.8,63.1l-1.8,2h8.6l-1.7-2c0,0-2.1-40.1-2.7-50.2s0,0,0,0L37.8,63.1"/>
</svg>
